# AST/ASF file generated using VICON BodyLanguage
# -----------------------------------------------
:version 1.10
:name VICON
:units
  mass 1.0
  length 0.45
  angle deg
:documentation
   .ast/.asf automatically generated from VICON data using
   VICON BodyBuilder and BodyLanguage model FoxedUp or BRILLIANT.MOD
:root
   order TX TY TZ RX RY RZ
   axis XYZ
   position 0 0 0  
   orientation 0 0 0 
:bonedata
  begin
     id 1 
     name lhipjoint
     direction 0.541323 -0.757556 0.364798 
     length 2.47576 
     axis 0 0 0  XYZ
  end
  begin
     id 2 
     name lfemur
     direction 0.34202 -0.939693 0  
     length 7.46493  
     axis 0 0 20  XYZ
    dof rx ry rz
    limits (-160.0 20.0)
           (-70.0 70.0)
           (-60.0 70.0)
  end
  begin
     id 3 
     name ltibia
     direction 0.34202 -0.939693 0   
     length 7.73805   
     axis 0 0 20   XYZ
    dof rx
    limits (-10.0 170.0)
  end
  begin
     id 4 
     name lfoot
     direction 0.107174 -0.294458 0.949636   
     length 2.25864   
     axis -90 7.62852e-016 20   XYZ
    dof rx rz
    limits (-45.0 90.0)
           (-70.0 20.0)
  end
  begin
     id 5 
     name ltoes
     direction 1.53606e-011 -4.21934e-011 1   
     length 1.12451   
     axis -90 7.62852e-016 20   XYZ
    dof rx
    limits (-90.0 20.0)
  end
  begin
     id 6 
     name rhipjoint
     direction -0.524745 -0.766967 0.36933   
     length 2.44538  
     axis 0 0 0  XYZ 
  end
  begin
     id 7 
     name rfemur
     direction -0.34202 -0.939693 0   
     length 7.61604   
     axis 0 0 -20   XYZ
    dof rx ry rz
    limits (-160.0 20.0)
           (-70.0 70.0)
           (-70.0 60.0)
  end
  begin
     id 8 
     name rtibia
     direction -0.34202 -0.939693 0   
     length 7.61056   
     axis 0 0 -20   XYZ
    dof rx
    limits (-10.0 170.0)
 end
 begin
     id 9 
     name rfoot
     direction -0.12616 -0.346623 0.929482   
     length 2.46372  
     axis -90 -7.62852e-016 -20   XYZ
    dof rx rz
    limits (-45.0 90.0)
           (-20.0 70.0)
  end
  begin
     id 10 
     name rtoes
     direction -1.53531e-011 -4.22004e-011 1   
     length 1.21611   
     axis -90 -7.62852e-016 -20   XYZ
    dof rx
    limits (-90.0 20.0)
  end
  begin
     id 11 
     name lowerback
     direction -0.000778023 0.997293 -0.0735223   
     length 2.06139   
     axis 0 0 0   XYZ
    dof rx ry rz
    limits (-20.0 45.0)
           (-30.0 30.0)
           (-30.0 30.0)
  end
  begin
     id 12 
     name upperback
     direction 0.0222598 0.999722 -0.0078355   
     length 2.06383   
     axis 0 0 0   XYZ
    dof rx ry rz
    limits (-20.0 45.0)
           (-30.0 30.0)
           (-30.0 30.0)
  end
  begin
     id 13 
     name thorax
     direction 0.0219654 0.999405 0.0265994   
     length 2.07163   
     axis 0 0 0   XYZ
    dof rx ry rz
    limits (-20.0 45.0)
           (-30.0 30.0)
           (-30.0 30.0)
  end
  begin
     id 14 
     name lowerneck
     direction 0.0213282 0.988147 0.15202   
     length 1.75969   
     axis 0 0 0   XYZ
    dof rx ry rz
    limits (-20.0 45.0)
           (-30.0 30.0)
           (-30.0 30.0)
  end
  begin
     id 15 
     name upperneck
     direction -0.0546456 0.982624 -0.177379   
     length 1.79244   
     axis 0 0 0   XYZ
    dof rx ry rz
    limits (-20.0 45.0)
           (-30.0 30.0)
           (-30.0 30.0)
  end
  begin
     id 16
     name head
     direction -0.0199987 0.996855 -0.076686  
     length 1.80555  
     axis 0 0 0   XYZ
    dof rx ry rz
    limits (-20.0 45.0)
           (-30.0 30.0)
           (-30.0 30.0)
  end
  begin
     id 17 
     name lclavicle
     direction 0.929565 0.363219 -0.063096  
     length 3.55722  
     axis 0 0 0   XYZ
    dof ry rz
    limits (-20.0 10.0)
           (0.0 20.0)
  end
  begin
     id 18 
     name lhumerus
     direction 1 -4.48993e-011 -2.36203e-027   
     length 4.92785   
     axis 180 -30 -90   XYZ
    dof rx ry rz
    limits (-60.0 90.0)
           (-90.0 90.0)
           (-90.0 90.0)
  end
  begin
     id 19
     name lradius
     direction 1 -4.48947e-011 2.02997e-027   
     length 3.44052   
     axis 180 -30 -90   XYZ
    dof rx
    limits (-10.0 170.0)
  end
  begin
     id 20
     name lwrist
     direction 1 -4.48962e-011 1.45991e-027   
     length 1.72026   
     axis 1.49639e-024 90 90   XYZ
    dof ry
    limits (-180.0 0.0)
 end
  begin
     id 21 
     name lhand
     direction 1 -4.48984e-011 2.91906e-027   
     length 0.654326   
     axis -1.863e-015 90 90   XYZ
    dof rx rz
    limits (-90.0 90.0)
           (-45.0 45.0)
  end
  begin
     id 22 
     name lfingers
     direction 1 -4.48961e-011 5.83968e-027   
     length 0.527534   
     axis -3.72598e-015 90 90   XYZ
    dof rx
    limits (0.0 90.0)
  end
  begin
     id 23
     name lthumb
     direction 0.707107 -6.34963e-011 0.707107   
     length 0.757437   
     axis -90 45 -6.68868e-015   XYZ
    dof rx rz
    limits (-45.0 45.0)
           (-45.0 45.0)
  end
  begin
     id 24 
     name rclavicle
     direction -0.902944 0.422599 -0.0781198   
     length 3.54432  
     axis 0 0 0   XYZ 
    dof ry rz
    limits (-10.0 20.0)
           (-20.0 0.0)
  end
  begin
     id 25 
     name rhumerus
     direction -1 -4.48953e-011 -4.75835e-028  
     length 5.09181   
     axis 180 30 90   XYZ
    dof rx ry rz
    limits (-90.0 60.0)
           (-90.0 90.0)
           (-90.0 90.0)
  end
  begin
     id 26 
     name rradius
     direction -1 -4.48986e-011 -3.25889e-027   
     length 3.49865   
     axis 180 30 90   XYZ
    dof rx
    limits (-10.0 170.0)
  end
  begin
     id 27 
     name rwrist
     direction -1 -4.48963e-011 1.45989e-027   
     length 1.74933   
     axis 1.49639e-024 -90 -90   XYZ
    dof ry
    limits (-180.0 0.0)
  end
  begin
     id 28
     name rhand
     direction -1 -4.49003e-011 2.91844e-027   
     length 0.66641   
     axis -1.863e-015 -90 -90   XYZ
    dof rx rz
    limits (-90.0 90.0)
           (-45.0 45.0)
  end
  begin
     id 29
     name rfingers
     direction -1 -4.48973e-011 5.83886e-027   
     length 0.537277   
     axis -3.72598e-015 -90 -90   XYZ
    dof rx
    limits (0.0 90.0)
  end
  begin
     id 30
     name rthumb
     direction -0.707107 -6.34976e-011 0.707107   
     length 0.771425   
     axis -90 -45 6.68868e-015   XYZ
    dof rx rz
    limits (-45.0 45.0)
           (-45.0 45.0)
  end
:hierarchy
  begin
    root lhipjoint rhipjoint lowerback
    lhipjoint lfemur
    lfemur ltibia
    ltibia lfoot
    lfoot ltoes
    rhipjoint rfemur
    rfemur rtibia
    rtibia rfoot
    rfoot rtoes
    lowerback upperback
    upperback thorax
    thorax lowerneck lclavicle rclavicle
    lowerneck upperneck
    upperneck head
    lclavicle lhumerus
    lhumerus lradius
    lradius lwrist
    lwrist lhand lthumb
    lhand lfingers
    rclavicle rhumerus
    rhumerus rradius
    rradius rwrist
    rwrist rhand rthumb
    rhand rfingers
  end

#!OML:ASF H:\LiuWeirdWalks\Patient Classification 1\Patient 1\Session 1\male.ASF
:FULLY-SPECIFIED
:DEGREES
122
root 2.09169 17.9971 -28.3703 6.11348 4.93842 7.56866
lowerback 4.04977 0.549877 9.42262
upperback -0.124473 1.35232 6.58446
thorax -2.36041 0.601393 1.48824
lowerneck -30.7548 1.79133 13.9137
upperneck 27.543 -1.89523 -6.88221
head 14.4106 -0.326093 -5.56754
rclavicle -1.31198e-014 3.49861e-014
rhumerus -30.9431 -31.5315 -53.3356
rradius 31.6633
rwrist -9.83023
rhand -16.2795 -2.82128
rfingers 7.12502
rthumb 9.93049 -32.5671
lclavicle -1.31198e-014 3.49861e-014
lhumerus -34.9723 -28.589 101.005
lradius 34.7289
lwrist 9.86909
lhand -9.99284 -2.91837
lfingers 7.12502
lthumb 15.9905 26.4417
rfemur -11.7274 -2.11569 2.85388
rtibia 28.4804
rfoot -11.1617 -25.0404
rtoes -5.0448
lfemur -6.99796 5.61364 -29.3051
ltibia 16.9418
lfoot -8.54296 8.26366
ltoes -6.28223
123
root 2.10597 17.9955 -28.377 6.22684 5.08207 7.735
lowerback 4.03465 0.358999 9.43872
upperback -0.127878 1.11134 7.01596
thorax -2.37546 0.484997 1.94667
lowerneck -30.8875 2.15752 14.289
upperneck 27.87 -1.37877 -7.46055
head 14.6423 -0.135616 -5.80188
rclavicle 1.51076e-014 4.45278e-014
rhumerus -30.4561 -31.1715 -52.8623
rradius 31.7341
rwrist -10.1539
rhand -16.2855 -2.87288
rfingers 7.12502
rthumb 9.92475 -32.6189
lclavicle 1.51076e-014 4.45278e-014
lhumerus -34.9871 -28.299 101.311
lradius 34.9879
lwrist 9.69006
lhand -9.82003 -2.97641
lfingers 7.12502
lthumb 16.157 26.3702
rfemur -11.8045 -2.11719 2.62895
rtibia 28.5295
rfoot -11.2011 -25.1864
rtoes -5.01573
lfemur -7.09303 5.74679 -29.5249
ltibia 16.8799
lfoot -8.56991 7.92536
ltoes -6.28859
124
root 2.11994 17.9938 -28.3832 6.3344 5.21212 7.88311
lowerback 4.04479 0.295071 9.56789
upperback -0.100194 1.03892 7.27367
thorax -2.35839 0.45075 2.15154
lowerneck -31.2226 2.27302 14.5925
upperneck 28.1531 -1.3309 -7.72751
head 14.8388 -0.108114 -5.98528
rclavicle -2.0276e-014 -4.77083e-014
rhumerus -30.2572 -31.3202 -52.3543
rradius 31.8483
rwrist -10.4533
rhand -16.2991 -2.93931
rfingers 7.12502
rthumb 9.91158 -32.686
lclavicle -2.0276e-014 -4.77083e-014
lhumerus -34.966 -28.6209 101.513
lradius 35.2651
lwrist 9.69565
lhand -9.57509 -2.90984
lfingers 7.12502
lthumb 16.3928 26.4174
rfemur -11.8826 -2.12127 2.42436
rtibia 28.5791
rfoot -11.2337 -25.3192
rtoes -4.99682
lfemur -7.18124 5.85456 -29.7265
ltibia 16.8163
lfoot -8.58493 7.63147
ltoes -6.29714
125
root 2.13349 17.9924 -28.3892 6.42399 5.34874 8.00847
lowerback 4.07348 0.230163 9.72147
upperback -0.0769433 0.969819 7.53022
thorax -2.35565 0.417395 2.34221
lowerneck -31.5591 2.38871 14.9081
upperneck 28.4494 -1.29546 -7.9828
head 15.0422 -0.0813221 -6.17116
rclavicle -8.34896e-015 -6.04305e-014
rhumerus -30.0956 -31.4919 -51.8286
rradius 31.9562
rwrist -10.7027
rhand -16.297 -3.00051
rfingers 7.12502
rthumb 9.91364 -32.7471
lclavicle -8.34896e-015 -6.04305e-014
lhumerus -34.9362 -28.9293 101.702
lradius 35.5278
lwrist 9.71105
lhand -9.31608 -2.80486
lfingers 7.12502
lthumb 16.6422 26.5017
rfemur -11.939 -2.11885 2.24904
rtibia 28.6267
rfoot -11.2659 -25.4608
rtoes -4.98155
lfemur -7.25074 5.94672 -29.9002
ltibia 16.7542
lfoot -8.59357 7.35835
ltoes -6.31052
126
root 2.14664 17.9909 -28.3952 6.50239 5.48248 8.12579
lowerback 4.11502 0.169246 9.88092
upperback -0.054946 0.908561 7.78337
thorax -2.36085 0.387619 2.52629
lowerneck -31.9075 2.49961 15.22
upperneck 28.7574 -1.27578 -8.22084
head 15.2535 -0.0575259 -6.35536
rclavicle -1.78906e-014 -9.54166e-014
rhumerus -29.9618 -31.6961 -51.2833
rradius 32.055
rwrist -10.912
rhand -16.2853 -3.05592
rfingers 7.12502
rthumb 9.92488 -32.802
lclavicle -1.78906e-014 -9.54166e-014
lhumerus -34.8857 -29.2347 101.877
lradius 35.7839
lwrist 9.7893
lhand -9.02609 -2.65739
lfingers 7.12502
lthumb 16.9213 26.6255
rfemur -11.9841 -2.11344 2.08429
rtibia 28.674
rfoot -11.3004 -25.5987
rtoes -4.96277
lfemur -7.30956 6.02885 -30.0647
ltibia 16.6931
lfoot -8.59138 7.10765
ltoes -6.34111
